<svg width="27" height="27" viewBox="0 0 27 27" fill="none" xmlns="http://www.w3.org/2000/svg">
<path d="M3.9375 5.0625H5.87098C6.5667 5.0625 6.91456 5.0625 7.17645 5.25126C7.43834 5.44002 7.54834 5.77003 7.76835 6.43005L8.4375 8.43753" stroke="#222222" stroke-linecap="round"/>
<path d="M19.6875 19.6875H9.05728C8.73739 19.6875 8.57745 19.6875 8.4586 19.658C7.98441 19.5401 7.66488 19.0967 7.70296 18.6096C7.71251 18.4875 7.76309 18.3358 7.86424 18.0323V18.0323C7.9765 17.6955 8.03263 17.5271 8.10744 17.3843C8.39961 16.8267 8.93728 16.4391 9.55869 16.3383C9.71782 16.3125 9.89532 16.3125 10.2503 16.3125H16.3125" stroke="#222222" stroke-linecap="round" stroke-linejoin="round"/>
<path d="M16.2412 16.3125H12.2001C10.9209 16.3125 10.2812 16.3125 9.78031 15.9822C9.27937 15.6519 9.02742 15.064 8.5235 13.8882L7.97968 12.6193C7.17019 10.7304 6.76544 9.78603 7.21005 9.11176C7.65465 8.4375 8.68214 8.4375 10.7371 8.4375H17.893C20.192 8.4375 21.3415 8.4375 21.7751 9.18461C22.2087 9.93172 21.6383 10.9298 20.4977 12.9259L19.7142 14.2971C19.1522 15.2804 18.8713 15.7721 18.4057 16.0423C17.9401 16.3125 17.3738 16.3125 16.2412 16.3125Z" stroke="#222222" stroke-linecap="round"/>
<ellipse cx="19.125" cy="22.4994" rx="1.125" ry="1.1244" fill="#222222"/>
<ellipse cx="10.125" cy="22.4994" rx="1.125" ry="1.1244" fill="#222222"/>
</svg>
