<svg width="40" height="30" viewBox="0 0 40 30" fill="none" xmlns="http://www.w3.org/2000/svg">
<path d="M39.1755 4.68925C38.7145 2.84423 37.3612 1.39433 35.6391 0.900443C32.5176 0.00439453 20.0085 0.00439453 20.0085 0.00439453C20.0085 0.00439453 7.49949 0.00439453 4.38128 0.900443C2.65919 1.39433 1.30588 2.84423 0.844897 4.68925C0.00854492 8.03003 0.00854492 15.0044 0.00854492 15.0044C0.00854492 15.0044 0.00854492 21.9788 0.844897 25.3195C1.30588 27.1646 2.65919 28.6145 4.38128 29.1083C7.49949 30.0044 20.0085 30.0044 20.0085 30.0044C20.0085 30.0044 32.5176 30.0044 35.6358 29.1083C37.3579 28.6145 38.7112 27.1646 39.1722 25.3195C40.0085 21.9788 40.0085 15.0044 40.0085 15.0044C40.0085 15.0044 40.0085 8.03003 39.1722 4.68925H39.1755ZM16.0079 21.432V8.57683L26.3997 15.0044L16.0079 21.432Z" fill="#FE0000"/>
</svg>
