<?xml version="1.0" encoding="utf-8"?>
<!-- Generator: Adobe Illustrator 28.1.0, SVG Export Plug-In . SVG Version: 6.00 Build 0)  -->
<svg version="1.1" id="Layer_1" xmlns="http://www.w3.org/2000/svg" xmlns:xlink="http://www.w3.org/1999/xlink" x="0px" y="0px"
	 viewBox="0 0 30 60" style="enable-background:new 0 0 30 60;" xml:space="preserve">
<style type="text/css">
	.st0{fill:url(#SVGID_1_);}
	.st1{fill:url(#SVGID_00000140697125626722193410000008068822575417911965_);}
	.st2{fill:url(#SVGID_00000031191431592334953840000011526142402345649825_);}
	.st3{clip-path:url(#SVGID_00000051367347710162253420000003855421225803099811_);}
	.st4{fill:#BCBCBC;}
</style>
<g>
	
		<linearGradient id="SVGID_1_" gradientUnits="userSpaceOnUse" x1="0.2894" y1="2.2914" x2="27.5201" y2="29.5219" gradientTransform="matrix(1 0 0 -1 0 62)">
		<stop  offset="0" style="stop-color:#FFD521"/>
		<stop  offset="5.000000e-02" style="stop-color:#FFD521"/>
		<stop  offset="0.5011" style="stop-color:#F50000"/>
		<stop  offset="0.95" style="stop-color:#B900B4"/>
		<stop  offset="0.9501" style="stop-color:#B900B4"/>
		<stop  offset="1" style="stop-color:#B900B4"/>
	</linearGradient>
	<path class="st0" d="M24.8,37c0-1-0.8-1.8-1.8-1.8c-1,0-1.8,0.8-1.8,1.8c0,1,0.8,1.8,1.8,1.8C24,38.8,24.8,38,24.8,37"/>
	
		<linearGradient id="SVGID_00000164485223401444915910000002465812377674699450_" gradientUnits="userSpaceOnUse" x1="0.2708" y1="2.2726" x2="27.5239" y2="29.5257" gradientTransform="matrix(1 0 0 -1 0 62)">
		<stop  offset="0" style="stop-color:#FFD521"/>
		<stop  offset="5.000000e-02" style="stop-color:#FFD521"/>
		<stop  offset="0.5011" style="stop-color:#F50000"/>
		<stop  offset="0.95" style="stop-color:#B900B4"/>
		<stop  offset="0.9501" style="stop-color:#B900B4"/>
		<stop  offset="1" style="stop-color:#B900B4"/>
	</linearGradient>
	<path style="fill:url(#SVGID_00000164485223401444915910000002465812377674699450_);" d="M27.2,51.1c-0.1,1.5-0.3,2.3-0.5,2.8
		c-0.3,0.7-0.6,1.2-1.1,1.7c-0.5,0.5-1,0.8-1.7,1.1c-0.5,0.2-1.3,0.5-2.8,0.5c-1.6,0.1-2,0.1-6.1,0.1c-4,0-4.5,0-6.1-0.1
		c-1.5-0.1-2.3-0.3-2.8-0.5c-0.7-0.3-1.2-0.6-1.7-1.1c-0.5-0.5-0.9-1-1.1-1.7c-0.2-0.5-0.5-1.3-0.5-2.8C2.7,49.5,2.7,49,2.7,45
		c0-4,0-4.5,0.1-6.1c0.1-1.5,0.3-2.3,0.5-2.8c0.3-0.7,0.6-1.2,1.1-1.7c0.5-0.5,1-0.8,1.7-1.1c0.5-0.2,1.3-0.4,2.8-0.5
		c1.6-0.1,2.1-0.1,6.1-0.1c4,0,4.5,0,6.1,0.1c1.5,0.1,2.3,0.3,2.8,0.5c0.7,0.3,1.2,0.6,1.7,1.1c0.5,0.5,0.9,1,1.1,1.7
		c0.2,0.5,0.4,1.3,0.5,2.8c0.1,1.6,0.1,2.1,0.1,6.1C27.3,49,27.3,49.5,27.2,51.1L27.2,51.1z M29.9,38.8c-0.1-1.6-0.3-2.7-0.7-3.6
		c-0.4-1-0.9-1.8-1.7-2.7c-0.8-0.8-1.7-1.3-2.7-1.7c-1-0.4-2-0.6-3.6-0.7C19.6,30,19.1,30,15,30c-4.1,0-4.6,0-6.2,0.1
		c-1.6,0.1-2.7,0.3-3.6,0.7c-1,0.4-1.8,0.9-2.7,1.7c-0.8,0.8-1.3,1.7-1.7,2.7c-0.4,1-0.6,2-0.7,3.6C0,40.4,0,40.9,0,45
		c0,4.1,0,4.6,0.1,6.2c0.1,1.6,0.3,2.7,0.7,3.6c0.4,1,0.9,1.8,1.7,2.7c0.8,0.8,1.7,1.3,2.7,1.7c1,0.4,2,0.6,3.6,0.7
		C10.4,60,10.9,60,15,60c4.1,0,4.6,0,6.2-0.1c1.6-0.1,2.7-0.3,3.6-0.7c1-0.4,1.8-0.9,2.7-1.7c0.8-0.8,1.3-1.7,1.7-2.7
		c0.4-1,0.6-2,0.7-3.6C30,49.6,30,49.1,30,45C30,40.9,30,40.4,29.9,38.8L29.9,38.8z"/>
	
		<linearGradient id="SVGID_00000112630100147129247430000012273210423594236828_" gradientUnits="userSpaceOnUse" x1="0.2741" y1="2.2757" x2="27.5205" y2="29.5222" gradientTransform="matrix(1 0 0 -1 0 62)">
		<stop  offset="0" style="stop-color:#FFD521"/>
		<stop  offset="5.000000e-02" style="stop-color:#FFD521"/>
		<stop  offset="0.5011" style="stop-color:#F50000"/>
		<stop  offset="0.95" style="stop-color:#B900B4"/>
		<stop  offset="0.9501" style="stop-color:#B900B4"/>
		<stop  offset="1" style="stop-color:#B900B4"/>
	</linearGradient>
	<path style="fill:url(#SVGID_00000112630100147129247430000012273210423594236828_);" d="M15,50c-2.8,0-5-2.2-5-5c0-2.8,2.2-5,5-5
		c2.8,0,5,2.2,5,5C20,47.8,17.8,50,15,50L15,50z M15,37.3c-4.3,0-7.7,3.5-7.7,7.7c0,4.3,3.4,7.7,7.7,7.7c4.3,0,7.7-3.4,7.7-7.7
		C22.7,40.7,19.3,37.3,15,37.3z"/>
</g>
<g>
	<defs>
		<rect id="SVGID_00000111179752735681126870000005898582934676438167_" width="30" height="30"/>
	</defs>
	<clipPath id="SVGID_00000072992331205657066430000014696221441867346341_">
		<use xlink:href="#SVGID_00000111179752735681126870000005898582934676438167_"  style="overflow:visible;"/>
	</clipPath>
	<g id="instagram_logo_BW" style="clip-path:url(#SVGID_00000072992331205657066430000014696221441867346341_);">
		<g id="Group">
			<path id="Vector" class="st4" d="M15,2.7c4,0,4.5,0,6.1,0.1c1.6,0.1,3.3,0.4,4.5,1.6c1.2,1.2,1.6,2.9,1.6,4.5
				c0.1,1.6,0.1,2.1,0.1,6.1s0,4.5-0.1,6.1c-0.1,1.6-0.5,3.3-1.6,4.5c-1.2,1.2-2.9,1.6-4.5,1.6c-1.6,0.1-2.1,0.1-6.1,0.1
				s-4.5,0-6.1-0.1c-1.6-0.1-3.3-0.5-4.5-1.6c-1.2-1.2-1.6-2.9-1.6-4.5C2.7,19.5,2.7,19,2.7,15s0-4.5,0.1-6.1
				c0.1-1.6,0.5-3.3,1.6-4.5c1.2-1.2,2.9-1.6,4.5-1.6C10.5,2.7,11,2.7,15,2.7z M15,0c-4.1,0-4.6,0-6.2,0.1C6.5,0.2,4.2,0.8,2.5,2.5
				c-1.7,1.7-2.3,4-2.4,6.3C0,10.4,0,10.9,0,15c0,4.1,0,4.6,0.1,6.2c0.1,2.3,0.8,4.6,2.4,6.3c1.7,1.7,4,2.3,6.3,2.4
				C10.4,30,10.9,30,15,30c4.1,0,4.6,0,6.2-0.1c2.3-0.1,4.6-0.8,6.3-2.4c1.7-1.7,2.3-4,2.4-6.3C30,19.6,30,19.1,30,15
				c0-4.1,0-4.6-0.1-6.2c-0.1-2.3-0.8-4.6-2.4-6.3c-1.7-1.7-4-2.3-6.3-2.4C19.6,0,19.1,0,15,0z"/>
			<path id="Vector_2" class="st4" d="M15,7.3c-4.3,0-7.7,3.4-7.7,7.7c0,4.3,3.4,7.7,7.7,7.7s7.7-3.4,7.7-7.7
				C22.7,10.7,19.3,7.3,15,7.3z M15,20c-2.8,0-5-2.2-5-5s2.2-5,5-5c2.8,0,5,2.2,5,5S17.8,20,15,20z"/>
			<path id="Vector_3" class="st4" d="M23,8.8c1,0,1.8-0.8,1.8-1.8S24,5.2,23,5.2c-1,0-1.8,0.8-1.8,1.8S22,8.8,23,8.8z"/>
		</g>
	</g>
</g>
</svg>
