<?xml version="1.0" encoding="utf-8"?>
<!-- Generator: Adobe Illustrator 28.1.0, SVG Export Plug-In . SVG Version: 6.00 Build 0)  -->
<svg version="1.1" id="Layer_1" xmlns="http://www.w3.org/2000/svg" xmlns:xlink="http://www.w3.org/1999/xlink" x="0px" y="0px"
	 viewBox="0 0 16 60" style="enable-background:new 0 0 16 60;" xml:space="preserve">
<style type="text/css">
	.st0{fill:#0061FF;}
	.st1{fill:#BCBCBC;}
</style>
<path class="st0" d="M14.7,47.2l1-5.6H10v-2c0-3,1.1-4.1,4-4.1c0.9,0,1.6,0,2,0.1v-5.1c-0.8-0.2-2.7-0.5-3.8-0.5
	c-5.9,0-8.6,2.9-8.6,9.2v2.4H0v5.6h3.6v12.2C5,59.8,6.4,60,7.9,60c0.7,0,1.4,0,2.1-0.1V47.2H14.7L14.7,47.2z"/>
<path class="st1" d="M14.7,17.2l1-5.6H10v-2c0-3,1.1-4.1,4-4.1c0.9,0,1.6,0,2,0.1V0.5C15.2,0.2,13.3,0,12.2,0C6.3,0,3.6,2.9,3.6,9.2
	v2.4H0v5.6h3.6v12.2C5,29.8,6.4,30,7.9,30c0.7,0,1.4,0,2.1-0.1V17.2H14.7L14.7,17.2z"/>
</svg>
