<svg width="30" height="30" viewBox="0 0 30 30" fill="none" xmlns="http://www.w3.org/2000/svg">
<path d="M24.8078 6.99352C24.8078 5.99648 23.9998 5.19142 23.0065 5.19142C22.0131 5.19142 21.2043 5.99648 21.2043 6.99352C21.2043 7.98689 22.0131 8.79195 23.0065 8.79195C23.9998 8.79195 24.8078 7.98689 24.8078 6.99352" fill="url(#paint0_linear_502_2)"/>
<path d="M27.2082 21.0605C27.1415 22.5232 26.8968 23.3178 26.6937 23.8456C26.4209 24.5454 26.0955 25.0458 25.5677 25.5707C25.0458 26.0955 24.5454 26.4202 23.8456 26.69C23.3178 26.8961 22.5202 27.1415 21.0576 27.2112C19.4764 27.2808 19.0079 27.2957 14.9981 27.2957C10.9921 27.2957 10.5199 27.2808 8.93867 27.2112C7.4761 27.1415 6.68216 26.8961 6.15432 26.69C5.45083 26.4202 4.95418 26.0955 4.42933 25.5707C3.90076 25.0458 3.57534 24.5454 3.30625 23.8456C3.10309 23.3178 2.85479 22.5232 2.79175 21.0605C2.71469 19.4793 2.70056 19.0034 2.70056 15.0018C2.70056 10.9921 2.71469 10.5199 2.79175 8.93865C2.85479 7.47609 3.10309 6.68215 3.30625 6.14986C3.57534 5.45082 3.90076 4.95339 4.42933 4.42854C4.95418 3.90447 5.45083 3.579 6.15432 3.30624C6.68216 3.09941 7.4761 2.85773 8.93867 2.78806C10.5199 2.71834 10.9921 2.70055 14.9981 2.70055C19.0079 2.70055 19.4764 2.71834 21.0576 2.78806C22.5202 2.85773 23.3178 3.09941 23.8456 3.30624C24.5454 3.579 25.0458 3.90447 25.5677 4.42854C26.0955 4.95339 26.4209 5.45082 26.6937 6.14986C26.8968 6.68215 27.1415 7.47609 27.2082 8.93865C27.2816 10.5199 27.2994 10.9921 27.2994 15.0018C27.2994 19.0034 27.2816 19.4793 27.2082 21.0605V21.0605ZM29.9088 8.81562C29.8354 7.21734 29.5833 6.12539 29.209 5.17433C28.828 4.18763 28.3172 3.35144 27.481 2.51524C26.6485 1.68277 25.8123 1.172 24.8256 0.786534C23.8709 0.415862 22.7826 0.160833 21.1836 0.0911683C19.5846 0.0140538 19.0739 -1.47661e-05 14.9981 -1.47661e-05C10.9261 -1.47661e-05 10.4117 0.0140538 8.81268 0.0911683C7.21735 0.160833 6.12985 0.415862 5.17062 0.786534C4.18765 1.172 3.35145 1.68277 2.51898 2.51524C1.68279 3.35144 1.17201 4.18763 0.787269 5.17433C0.416596 6.12539 0.16457 7.21734 0.0874558 8.81562C0.0177914 10.4146 0 10.9261 0 15.0018C0 19.0739 0.0177914 19.5846 0.0874558 21.1836C0.16457 22.7789 0.416596 23.8701 0.787269 24.8256C1.17201 25.8086 1.68279 26.6485 2.51898 27.481C3.35145 28.3135 4.18765 28.828 5.17062 29.2127C6.12985 29.5833 7.21735 29.8354 8.81268 29.9088C10.4117 29.9822 10.9261 30 14.9981 30C19.0739 30 19.5846 29.9822 21.1836 29.9088C22.7826 29.8354 23.8709 29.5833 24.8256 29.2127C25.8123 28.828 26.6485 28.3135 27.481 27.481C28.3172 26.6485 28.828 25.8086 29.209 24.8256C29.5833 23.8701 29.8354 22.7789 29.9088 21.1836C29.9822 19.5846 30 19.0739 30 15.0018C30 10.9261 29.9822 10.4146 29.9088 8.81562V8.81562Z" fill="url(#paint1_linear_502_2)"/>
<path d="M14.9981 19.9975C12.2382 19.9975 9.99875 17.7617 9.99875 15.0018C9.99875 12.2375 12.2382 9.99875 14.9981 9.99875C17.7588 9.99875 20.0012 12.2375 20.0012 15.0018C20.0012 17.7617 17.7588 19.9975 14.9981 19.9975V19.9975ZM14.9981 7.29446C10.7438 7.29446 7.29819 10.7474 7.29819 15.0018C7.29819 19.2525 10.7438 22.7018 14.9981 22.7018C19.2525 22.7018 22.7018 19.2525 22.7018 15.0018C22.7018 10.7474 19.2525 7.29446 14.9981 7.29446Z" fill="url(#paint2_linear_502_2)"/>
<defs>
<linearGradient id="paint0_linear_502_2" x1="0.270572" y1="29.6898" x2="27.5013" y2="2.45923" gradientUnits="userSpaceOnUse">
<stop stop-color="#FFD521"/>
<stop offset="0.05" stop-color="#FFD521"/>
<stop offset="0.501119" stop-color="#F50000"/>
<stop offset="0.95" stop-color="#B900B4"/>
<stop offset="0.950079" stop-color="#B900B4"/>
<stop offset="1" stop-color="#B900B4"/>
</linearGradient>
<linearGradient id="paint1_linear_502_2" x1="0.270596" y1="29.7272" x2="27.5237" y2="2.47411" gradientUnits="userSpaceOnUse">
<stop stop-color="#FFD521"/>
<stop offset="0.05" stop-color="#FFD521"/>
<stop offset="0.501119" stop-color="#F50000"/>
<stop offset="0.95" stop-color="#B900B4"/>
<stop offset="0.950079" stop-color="#B900B4"/>
<stop offset="1" stop-color="#B900B4"/>
</linearGradient>
<linearGradient id="paint2_linear_502_2" x1="0.277657" y1="29.7279" x2="27.5241" y2="2.48138" gradientUnits="userSpaceOnUse">
<stop stop-color="#FFD521"/>
<stop offset="0.05" stop-color="#FFD521"/>
<stop offset="0.501119" stop-color="#F50000"/>
<stop offset="0.95" stop-color="#B900B4"/>
<stop offset="0.950079" stop-color="#B900B4"/>
<stop offset="1" stop-color="#B900B4"/>
</linearGradient>
</defs>
</svg>
