<?xml version="1.0" encoding="utf-8"?>
<!-- Generator: Adobe Illustrator 28.1.0, SVG Export Plug-In . SVG Version: 6.00 Build 0)  -->
<svg version="1.1" id="Layer_1" xmlns="http://www.w3.org/2000/svg" xmlns:xlink="http://www.w3.org/1999/xlink" x="0px" y="0px"
	 viewBox="0 0 33 60" style="enable-background:new 0 0 33 60;" xml:space="preserve">
<style type="text/css">
	.st0{fill:#2FB44A;}
	.st1{fill:#BCBCBC;}
</style>
<g>
	<path class="st0" d="M7.2,41.1c-0.6,0-1.1,0.5-1.1,1.1c0,0.6,0.5,1.1,1.1,1.1c0.6,0,1.1-0.5,1.1-1.1C8.3,41.6,7.8,41.1,7.2,41.1z"
		/>
	<path class="st0" d="M18.4,41c-0.7,0-1.2,0.5-1.2,1.2c0,0.7,0.5,1.2,1.2,1.2c0.7,0,1.2-0.5,1.2-1.2C19.6,41.5,19.1,41,18.4,41z"/>
	<path class="st0" d="M28.6,30H4.4C2,30,0,31.9,0,34.3v14.1c0,2.4,2,4.3,4.4,4.3H13l2.9,6.7c0,0,0.2,0.6,0.7,0.6
		c0.5,0,0.7-0.6,0.7-0.6l2.9-6.7h8.5c2.4,0,4.4-1.9,4.4-4.3V34.3C33,31.9,31,30,28.6,30z M10.4,42.4c0,2.6-2.7,2.6-2.7,2.6
		c-1,0-1.6-0.7-1.6-0.7v0.5H4v-8c0,0,0,0,0,0v0c0.1,0,2,0,2,0v3.1c0.5-0.8,1.8-0.8,1.8-0.8C10.7,39.4,10.4,42.4,10.4,42.4L10.4,42.4
		z M13.8,39.4v5.5h-1.9v-5.4c0-0.7-0.9-0.9-0.9-0.9v-1.9C14.1,36.7,13.8,39.4,13.8,39.4z M18.4,45.1c-1.8,0-3.2-1.3-3.2-2.9
		c0-1.6,1.5-2.9,3.2-2.9c1.8,0,3.2,1.3,3.2,2.9C21.7,43.8,20.2,45.1,18.4,45.1z M29,45.1c0,0,0,2.8-2.9,2.8h-0.9v-1.8h0.5
		c0,0,1.2,0.1,1.2-1.7c0,0-0.2,0.7-1.9,0.7c0,0-2.4-0.2-2.4-2.5v-0.9c0,0,0.1-2.4,2.7-2.6c0,0,1-0.1,1.7,0.7v-0.6h2V45.1L29,45.1z"
		/>
	<path class="st0" d="M25.9,41c-0.7,0-1.2,0.5-1.2,1.2s0.5,1.2,1.2,1.2c0.7,0,1.2-0.5,1.2-1.2S26.6,41,25.9,41z"/>
</g>
<g>
	<path class="st1" d="M7.2,11.1c-0.6,0-1.1,0.5-1.1,1.1c0,0.6,0.5,1.1,1.1,1.1c0.6,0,1.1-0.5,1.1-1.1C8.3,11.6,7.8,11.1,7.2,11.1z"
		/>
	<path class="st1" d="M18.4,11c-0.7,0-1.2,0.5-1.2,1.2c0,0.7,0.5,1.2,1.2,1.2c0.7,0,1.2-0.5,1.2-1.2C19.6,11.5,19.1,11,18.4,11z"/>
	<path class="st1" d="M28.6,0H4.4C2,0,0,1.9,0,4.3v14.1c0,2.4,2,4.3,4.4,4.3H13l2.9,6.7c0,0,0.2,0.6,0.7,0.6c0.5,0,0.7-0.6,0.7-0.6
		l2.9-6.7h8.5c2.4,0,4.4-1.9,4.4-4.3V4.3C33,1.9,31,0,28.6,0z M10.4,12.4c0,2.6-2.7,2.6-2.7,2.6c-1,0-1.6-0.7-1.6-0.7v0.5H4v-8
		c0,0,0,0,0,0v0c0.1,0,2,0,2,0v3.1c0.5-0.8,1.8-0.8,1.8-0.8C10.7,9.4,10.4,12.4,10.4,12.4L10.4,12.4z M13.8,9.4v5.5h-1.9V9.5
		c0-0.7-0.9-0.9-0.9-0.9V6.6C14.1,6.7,13.8,9.4,13.8,9.4z M18.4,15.1c-1.8,0-3.2-1.3-3.2-2.9s1.5-2.9,3.2-2.9c1.8,0,3.2,1.3,3.2,2.9
		S20.2,15.1,18.4,15.1z M29,15.1c0,0,0,2.8-2.9,2.8h-0.9v-1.8h0.5c0,0,1.2,0.1,1.2-1.7c0,0-0.2,0.7-1.9,0.7c0,0-2.4-0.2-2.4-2.5
		v-0.9c0,0,0.1-2.4,2.7-2.6c0,0,1-0.1,1.7,0.7V9.3h2V15.1L29,15.1z"/>
	<path class="st1" d="M25.9,11c-0.7,0-1.2,0.5-1.2,1.2c0,0.6,0.5,1.2,1.2,1.2c0.7,0,1.2-0.5,1.2-1.2C27.1,11.5,26.6,11,25.9,11z"/>
</g>
</svg>
