<svg width="33" height="30" viewBox="0 0 33 30" fill="none" xmlns="http://www.w3.org/2000/svg">
<path d="M7.20095 11.0723C6.57387 11.0723 6.06567 11.5704 6.06567 12.185C6.06567 12.7996 6.57387 13.3 7.20095 13.3C7.82804 13.3 8.33623 12.8019 8.33623 12.185C8.33623 11.5681 7.82804 11.0723 7.20095 11.0723Z" fill="#2FB44A"/>
<path d="M18.4255 10.9556C17.7495 10.9556 17.2017 11.4925 17.2017 12.1551C17.2017 12.8177 17.7495 13.3547 18.4255 13.3547C19.1016 13.3547 19.6494 12.8177 19.6494 12.1551C19.6494 11.4925 19.1016 10.9556 18.4255 10.9556Z" fill="#2FB44A"/>
<path d="M28.5871 0.00195312H4.41523C1.97683 0.00195312 0 1.9395 0 4.32945V18.3904C0 20.7803 1.97683 22.7179 4.41523 22.7179H12.952L15.8566 29.4239C15.8566 29.4239 16.0571 30.0042 16.5396 30.0042C17.0245 30.0042 17.2227 29.4239 17.2227 29.4239L20.1273 22.7179H28.5871C31.0255 22.7179 33.0023 20.7803 33.0023 18.3904V4.32945C33.0023 1.9395 31.0255 0.00195312 28.5871 0.00195312ZM10.3667 12.4315C10.3527 15.002 7.64157 15.0751 7.64157 15.0751C6.59254 15.0751 6.00042 14.3942 6.00042 14.3942V14.858H4.02593V6.87476C4.02593 6.87476 4.0166 6.87248 4.02593 6.87019V6.87476C4.14948 6.89304 6.00042 6.87019 6.00042 6.87019V9.92274C6.46433 9.1459 7.80708 9.15961 7.80708 9.15961C10.7304 9.42693 10.3644 12.4315 10.3644 12.4315H10.3667ZM13.8448 9.40637V14.8717H11.9123V9.46121C11.9123 8.72549 10.9798 8.51985 10.9798 8.51985V6.61201C14.0663 6.73539 13.8448 9.40637 13.8448 9.40637ZM18.4255 15.0796C16.6352 15.0796 15.1852 13.7704 15.1852 12.1573C15.1852 10.5442 16.6352 9.23501 18.4255 9.23501C20.2159 9.23501 21.6659 10.5442 21.6659 12.1573C21.6659 13.7704 20.2159 15.0796 18.4255 15.0796ZM29.0137 15.0796C29.0137 15.0796 29.0417 17.8557 26.1627 17.8557H25.2862V16.0575H25.8153C25.8153 16.0575 27.0252 16.1672 27.0112 14.3393C27.0112 14.3393 26.7758 15.0796 25.0787 15.0796C25.0787 15.0796 22.6729 14.9106 22.6729 12.6097V11.7369C22.6729 11.7369 22.7289 9.35153 25.3701 9.16189C25.3701 9.16189 26.4121 9.05222 27.0532 9.89761V9.31269H29.0137V15.0819V15.0796Z" fill="#2FB44A"/>
<path d="M25.9412 10.9829C25.2815 10.9829 24.7454 11.5084 24.7454 12.155C24.7454 12.8016 25.2815 13.3272 25.9412 13.3272C26.601 13.3272 27.1371 12.8016 27.1371 12.155C27.1371 11.5084 26.601 10.9829 25.9412 10.9829Z" fill="#2FB44A"/>
</svg>
