<svg width="26" height="30" viewBox="0 0 26 30" fill="none" xmlns="http://www.w3.org/2000/svg">
<path d="M0.0123291 4.07764H8.0086V26.0475H0.0123291V4.07764Z" fill="url(#paint0_linear_276_67)"/>
<path d="M25.3683 12.9332C26.5151 14.7389 25.9902 17.139 24.1951 18.2925C24.1731 18.3059 24.151 18.3192 24.129 18.3325L6.11202 29.4106C4.24637 30.5596 1.81176 29.9918 0.634153 28.1373C-0.512581 26.3316 0.0122701 23.9314 1.80735 22.7779C1.8294 22.7646 1.85146 22.7513 1.87351 22.738L19.8905 11.6599C21.7561 10.5153 24.1907 11.0787 25.3683 12.9332Z" fill="#00DE7B"/>
<path d="M0.607477 1.87275C1.78508 0.0138365 4.2241 -0.554043 6.09416 0.590589L24.1552 11.6687C25.9768 12.7867 26.5546 15.178 25.4431 17.0103C25.4299 17.0325 25.4166 17.0547 25.4034 17.0768C24.2258 18.9358 21.7868 19.5036 19.9211 18.3546L1.85565 7.27648C0.0341096 6.15847 -0.543668 3.76716 0.567782 1.93487C0.581014 1.91268 0.594245 1.8905 0.607477 1.86832V1.87275Z" fill="#00DE7B"/>
<defs>
<linearGradient id="paint0_linear_276_67" x1="3.82169" y1="23.6924" x2="3.82169" y2="4.16872" gradientUnits="userSpaceOnUse">
<stop stop-color="#00DE7B"/>
<stop offset="1" stop-color="#00BA6E"/>
</linearGradient>
</defs>
</svg>
