<?xml version="1.0" encoding="utf-8"?>
<!-- Generator: Adobe Illustrator 28.1.0, SVG Export Plug-In . SVG Version: 6.00 Build 0)  -->
<svg version="1.1" id="Layer_1" xmlns="http://www.w3.org/2000/svg" xmlns:xlink="http://www.w3.org/1999/xlink" x="0px" y="0px"
	 viewBox="0 0 26 60" style="enable-background:new 0 0 26 60;" xml:space="preserve">
<style type="text/css">
	.st0{fill:url(#SVGID_1_);}
	.st1{fill:#00DE7B;}
	.st2{fill:url(#SVGID_00000019673752637342781330000016483081384538446249_);}
	.st3{fill:#BCBCBC;}
</style>
<g>
	
		<linearGradient id="SVGID_1_" gradientUnits="userSpaceOnUse" x1="4.0105" y1="8.3053" x2="4.0105" y2="27.829" gradientTransform="matrix(1 0 0 -1 0 62)">
		<stop  offset="0" style="stop-color:#00DE7B"/>
		<stop  offset="1" style="stop-color:#00BA6E"/>
	</linearGradient>
	<path class="st0" d="M0,34.1h8v22H0V34.1z"/>
	<path class="st1" d="M25.4,42.9c1.1,1.8,0.6,4.2-1.2,5.4c0,0,0,0-0.1,0l-18,11.1c-1.9,1.1-4.3,0.6-5.5-1.3
		c-1.1-1.8-0.6-4.2,1.2-5.4c0,0,0,0,0.1,0l18-11.1C21.8,40.5,24.2,41.1,25.4,42.9z"/>
	<path class="st1" d="M0.6,31.9c1.2-1.9,3.6-2.4,5.5-1.3l18.1,11.1c1.8,1.1,2.4,3.5,1.3,5.3c0,0,0,0,0,0.1c-1.2,1.9-3.6,2.4-5.5,1.3
		L1.9,37.3C0,36.2-0.5,33.8,0.6,31.9C0.6,31.9,0.6,31.9,0.6,31.9L0.6,31.9z"/>
</g>
<g>
	
		<linearGradient id="SVGID_00000179605361756424502150000007055665581763965600_" gradientUnits="userSpaceOnUse" x1="4.0105" y1="38.3076" x2="4.0105" y2="57.8313" gradientTransform="matrix(1 0 0 -1 0 62)">
		<stop  offset="0" style="stop-color:#BCBCBC"/>
		<stop  offset="1" style="stop-color:#A0A0A0"/>
	</linearGradient>
	<path style="fill:url(#SVGID_00000179605361756424502150000007055665581763965600_);" d="M0,4.1h8v22H0V4.1z"/>
	<path class="st3" d="M25.4,12.9c1.1,1.8,0.6,4.2-1.2,5.4c0,0,0,0-0.1,0l-18,11.1c-1.9,1.1-4.3,0.6-5.5-1.3
		c-1.1-1.8-0.6-4.2,1.2-5.4c0,0,0,0,0.1,0l18-11.1C21.8,10.5,24.2,11.1,25.4,12.9z"/>
	<path class="st3" d="M0.6,1.9C1.8,0,4.2-0.6,6.1,0.6l18.1,11.1c1.8,1.1,2.4,3.5,1.3,5.3c0,0,0,0,0,0.1c-1.2,1.9-3.6,2.4-5.5,1.3
		L1.9,7.3C0,6.2-0.5,3.8,0.6,1.9C0.6,1.9,0.6,1.9,0.6,1.9L0.6,1.9z"/>
</g>
</svg>
