<?xml version="1.0" encoding="utf-8"?>
<!-- Generator: Adobe Illustrator 28.1.0, SVG Export Plug-In . SVG Version: 6.00 Build 0)  -->
<svg version="1.1" id="Layer_1" xmlns="http://www.w3.org/2000/svg" xmlns:xlink="http://www.w3.org/1999/xlink" x="0px" y="0px"
	 viewBox="0 0 42.9 60" style="enable-background:new 0 0 42.9 60;" xml:space="preserve">
<style type="text/css">
	.st0{fill:#FF0000;}
	.st1{fill:#FFFFFF;}
	.st2{fill:#BCBCBC;}
</style>
<g>
	<path class="st0" d="M42,34.7c-0.5-1.8-1.9-3.3-3.8-3.8C34.8,30,21.4,30,21.4,30S8,30,4.7,30.9c-1.8,0.5-3.3,1.9-3.8,3.8
		C0,38,0,45,0,45s0,7,0.9,10.3c0.5,1.8,1.9,3.3,3.8,3.8C8,60,21.4,60,21.4,60s13.4,0,16.7-0.9c1.8-0.5,3.3-1.9,3.8-3.8
		C42.9,52,42.9,45,42.9,45S42.9,38,42,34.7z"/>
	<polygon class="st1" points="17.1,51.4 28.3,45 17.1,38.6 	"/>
</g>
<g>
	<path class="st2" d="M42,4.7c-0.5-1.8-1.9-3.3-3.8-3.8C34.8,0,21.4,0,21.4,0S8,0,4.7,0.9C2.8,1.4,1.4,2.8,0.9,4.7C0,8,0,15,0,15
		s0,7,0.9,10.3c0.5,1.8,1.9,3.3,3.8,3.8C8,30,21.4,30,21.4,30s13.4,0,16.7-0.9c1.8-0.5,3.3-1.9,3.8-3.8C42.9,22,42.9,15,42.9,15
		S42.9,8,42,4.7z"/>
	<polygon class="st1" points="17.1,21.4 28.3,15 17.1,8.6 	"/>
</g>
</svg>
