<?xml version="1.0" encoding="UTF-8"?>
<svg id="Layer_2" data-name="Layer 2" xmlns="http://www.w3.org/2000/svg" viewBox="0 0 171.55 157.4">
  <defs>
    <style>
      .cls-1 {
        fill: #fefffe;
      }

      .cls-1, .cls-2 {
        stroke-width: 0px;
      }

      .cls-2 {
        fill: #0082ff;
      }
    </style>
  </defs>
  <g id="Layer_1-2" data-name="Layer 1">
    <g>
      <g>
        <polygon class="cls-2" points="51.82 78.87 31.55 78.87 59.61 20.43 79.88 20.43 51.82 78.87 51.82 78.87"/>
        <path class="cls-2" d="M135.73,26.86c-1.14-3.55-4.12-5.56-6.3-6.43-1.39-.56-2.45-.73-2.45-.73-1.13-.19-2.3-.29-3.49-.29-4.79,0-9.11,1.6-12.25,4.19-1.55,1.28-2.95,3.01-3.83,4.7l1.71,1.23c.27-.48,1.11-1.58,1.45-1.96,1.77-1.9,3.55-2.83,5.65-2.62,4.11.41,2.16,4.75,2.16,4.75h0l-23.61,49.16h20.63l17.79-38.9c2.23-5.48,3.96-8.7,2.54-13.11h0Z"/>
        <path class="cls-2" d="M72.86,89.76c-2.78-3.34-4.31-7.29-5.09-10.37l-.02-.11c-1.12-5.72.22-10.72,1.21-13.69l.07-.15c.38-.97.66-1.7.89-2.11l1.79-4.15.06.02,15.89-34.09c1.28-3.17,3.7-12.74-6.37-18.24-14.32-7.81-30.8,1.66-39.16,12.79-5.82,7.75-7.14,16.51-7.14,18.83,0,7.53,4.79,10.25,4.83,10.3.75,1.33-.84,2.05-1.39,1.69-.12-.07-5.26-2.72-5.62-10.73-.09-2.06-.09-4.53.63-7.34,2.44-11.09,9.82-20.48,19.81-26.51.61-.37,1.22-.73,1.84-1.06l.28-.14c4.08-2.17,8.47-3.64,12.94-4.29,11.67-1.68,23.69,1.77,31.54,10.97,2.78,3.25,4.35,6.46,5.13,9.48,1.48,5.69.11,10.42-1.05,13.26-.42,1.03-.75,1.98-1,2.4l-11.96,24.92s-2.34,4.85-4.02,8.62c-.58,1.37-2.06,5.45-1.85,10.43.59,4.75,2.86,10.78,9.58,14.03,12.05,5.82,31.07.53,38.74-13.91,1.75-3.29,4.16-9.38,4.16-14.83,0-7.73-3.71-11.25-3.74-11.31-.75-1.37.83-2.09,1.4-1.72.1.07,5.3,5.86,4.21,16.73-1.25,9.17-5.82,20.14-17.91,26.9-.62.36-1.21.74-1.84,1.09l-.26.14c-4.08,2.23-9.18,3.53-13.65,4.14-1.52.21-3.1.31-4.7.31-10.17,0-21.45-4.16-28.23-12.29"/>
      </g>
      <g>
        <path class="cls-1" d="M60.37,128.88v2.21c-1-1.71-2.66-2.54-4.73-2.61-.18,0-.36-.02-.54-.02-1.79,0-6.92.62-6.92,10.12,0,6.15,1.18,10.99,7.19,10.99.02,0,.2,0,.27,0,1.84,0,3.76-.86,4.73-2.36v4.08c0,2.1-1.32,3.52-3.75,3.56-1.88-.06-3.17-1.11-3.21-2.99h-4.31c-.31,3.81,3.03,5.53,6.71,5.53h.28c4.86,0,8.15-1.1,8.15-5.73v-22.79h-3.86ZM52.23,138.59c0-2.74.13-7.33,4.21-7.33.06,0,.11,0,.17,0,4.06.31,3.86,4.88,3.86,7.85s.13,7.66-4.2,7.67c-2.52-.11-4.03-1.78-4.03-8.19Z"/>
        <path class="cls-1" d="M113.65,146.91c-.75.08-1.3.16-1.58.16-3.07-.07-3.09-1.7-3.09-2.98v-12.66h4.82v-2.55h-4.82v-5.5l-3.84,1.6v3.9h-3.64v2.55h3.64s0,14.7,0,14.7c0,2.37,1.53,3.69,4.95,3.69.02,0,.19,0,.25,0,1.19,0,2.37-.25,3.55-.33v-2.62c-.09.01-.25.03-.25.03Z"/>
        <path class="cls-1" d="M146.78,119.98v10.87c-1.1-1.42-2.46-2.21-4.23-2.35-.25-.03-.5-.04-.77-.04-7.15,0-7.32,5.94-7.32,11.11,0,9,3.52,10.38,7.03,10.41h.36c2.22,0,3.73-.87,4.93-2.64v2.24h3.83s0-29.59,0-29.59h-3.83ZM146.78,138.38c0,4.16,0,8.8-3.98,8.85-4.33-.12-4.33-4.54-4.33-7.61,0-5.53.52-8.4,4.38-8.4h.17c3.6.29,3.76,4.51,3.76,7.16Z"/>
        <path class="cls-1" d="M20.61,128.48c-.26-.01-.51-.02-.75-.02-1.94,0-3.87.42-5.11,2.41-.89-1.63-2.96-2.34-4.83-2.39-.17,0-.34-.02-.5-.02-2.43,0-4.23.68-5.32,2.59v-2.18H0c.13,1.43.22,2.86.22,4.3v16.4h3.89s0-13.93,0-13.93c0-.78.17-2.01.83-3.03.52-.78,2-1.39,3.09-1.39,2.65.12,3.24,1.99,3.24,4v14.35h3.88s0-13.93,0-13.93c0-.78.17-2.83,1.23-3.65.96-.73,1.35-.78,2.69-.78,2.66.12,3.25,1.98,3.25,4v14.35h3.88s0-15.73,0-15.73c0-4.56-3.27-5.29-5.59-5.36Z"/>
        <path class="cls-1" d="M38.06,128.48c-.26-.01-.53-.02-.81-.02-7.67,0-8.42,5-8.42,11.07,0,9.01,3.62,10.41,8.22,10.45.16,0,.32,0,.48,0,4.64,0,7.67-2.09,7.71-6.67h-.28s-3.95,0-3.95,0c-.13,2.09-1.39,3.93-3.85,3.93-2.64-.08-4.2-1.33-4.2-6.92h12.44v-1.77c0-6.65-1.49-9.88-7.36-10.07ZM41.34,137.77h-8.36c.05-5.73,1.93-6.76,4.21-6.76.09,0,.18,0,.27,0,2.33.12,3.89,1.15,3.89,6.75Z"/>
        <path class="cls-1" d="M82.32,134.71c0-3.32-1.36-5.97-6.43-6.21-.33-.02-.67-.03-1.02-.03-4.69,0-7.32,1.6-7.5,6.24h4.16c0-2.13,1.06-3.69,3.47-3.69.05,0,.1,0,.16,0,3.43.21,3.39,3.08,3.3,5.73-5.04-.13-11.62.16-11.62,6.43,0,3.98,1.36,6.81,6.05,6.81h.26c2.63,0,4.29-.92,5.39-3.04v2.63h4.21c-.26-1.59-.44-3.28-.44-4.91v-9.95ZM70.71,143.43c0-4.27,4.37-4.11,7.76-4.13.34,6.53-2.26,7.89-4.42,7.94-2.32-.06-3.33-1.83-3.33-3.8Z"/>
        <path class="cls-1" d="M89.58,133.8c0-1.8,1.49-2.79,3.42-2.79.06,0,.12,0,.19,0,1.99.14,3.06,1.29,3.02,3.31h4.25c.29-3.9-2.76-5.67-6.45-5.84-.27-.01-.55-.03-.83-.03-6.22,0-7.63,3.48-7.63,5.65,0,6.19,11.05,6.27,11.05,9.96,0,2.09-1.61,3.12-3.7,3.15-3.49-.08-3.54-2.79-3.54-3.97h-4.33c-.13,4.75,2.85,6.72,7.62,6.72h.26c4.38,0,7.71-1.76,7.71-6.3,0-6.31-11.04-6.23-11.04-9.88Z"/>
        <path class="cls-1" d="M131.8,128.88h-3.83v13.72c0,3.41-2.36,4.77-4.28,4.79-2.42-.08-3.59-1.73-3.59-4.17v-14.35h-3.84v15.77c0,3.53,2.11,5.33,5.96,5.33h.24c2.26,0,4.3-.96,5.5-2.74v2.34h4.05c-.13-1.43-.22-2.87-.22-4.3v-16.39Z"/>
        <polygon class="cls-1" points="167.41 128.88 162.18 145.5 156.95 128.88 152.55 128.88 160.05 149.57 157.55 157.4 161.5 157.4 171.55 128.88 167.41 128.88"/>
      </g>
    </g>
  </g>
</svg>