<?xml version="1.0" encoding="UTF-8" standalone="no"?>
<svg
   xmlns:dc="http://purl.org/dc/elements/1.1/"
   xmlns:cc="http://creativecommons.org/ns#"
   xmlns:rdf="http://www.w3.org/1999/02/22-rdf-syntax-ns#"
   xmlns:svg="http://www.w3.org/2000/svg"
   xmlns="http://www.w3.org/2000/svg"
   xmlns:sodipodi="http://sodipodi.sourceforge.net/DTD/sodipodi-0.dtd"
   xmlns:inkscape="http://www.inkscape.org/namespaces/inkscape"
   width="420.293"
   height="67.625"
   viewBox="0 0 111.20252 17.892448"
   version="1.1"
   id="svg198">
  <defs
     id="defs192">
    <linearGradient
       id="a-5"
       x1="7.3094187"
       x2="7.3094187"
       y1="10.192285"
       y2="2.5053215"
       gradientTransform="scale(0.60511,1.6526)"
       gradientUnits="userSpaceOnUse">
      <stop
         offset="0%"
         stop-color="#00de7b"
         id="stop102" />
      <stop
         offset="100%"
         stop-color="#00ba6e"
         id="stop104" />
    </linearGradient>
  </defs>
  <g
     inkscape:groupmode="layer"
     id="layer1">
    <g
       fill-rule="nonzero"
       fill="none"
       id="g115"
       transform="matrix(0.13208044,0,0,0.13207954,-1.1471869,0)">
      <path
         fill="url(#a)"
         d="M 1.809,4.388 H 7.037 V 18.666 H 1.809 Z"
         transform="matrix(6.94825,0,0,6.94825,-3.8440181,-12.081257)"
         id="path109"
         style="fill:url(#a-5)" />
      <path
         fill="#00de7b"
         d="M 123.88558,58.38785 A 17.523475,17.523475 0 0 1 118.2575,82.776192 L 36.421065,132.78966 a 18.232196,18.232196 0 0 1 -24.874719,-5.73925 17.523475,17.523475 0 0 1 5.628079,-24.38834 L 99.010861,52.64165 a 18.232196,18.232196 0 0 1 24.874719,5.7462 z"
         id="path111" />
      <path
         fill="#00de7b"
         d="M 11.435174,8.4438603 A 18.266938,18.266938 0 0 1 36.344634,2.6698682 L 118.36867,52.697236 a 17.551268,17.551268 0 0 1 5.66282,24.416135 18.266938,18.266938 0 0 1 -24.909457,5.773993 L 17.097994,32.859995 A 17.551268,17.551268 0 0 1 11.435174,8.4438603 Z"
         id="path113" />
    </g>
    <path
       d="M 30.59651,4.0141035 V 9.6958237 L 25.333503,3.3642395 C 24.946237,2.9062115 24.467196,2.4830652 23.600889,2.4830652 H 23.29346 c -0.969087,0 -1.728029,0.6957625 -1.728029,1.5833539 v 9.8076219 c 0,0.862811 0.766282,1.565913 1.707841,1.565913 0.942474,0 1.709672,-0.70218 1.709672,-1.565913 V 7.944492 l 5.474073,6.580328 c 0.388189,0.457106 0.86723,0.880252 1.733537,0.880252 h 0.09636 c 0.969086,0 1.728029,-0.695755 1.728029,-1.583354 V 4.0141035 c 0,-0.8628177 -0.767198,-1.5659131 -1.709672,-1.5659131 -0.941559,0 -1.708757,0.7021797 -1.708757,1.5659131 z M 43.216707,9.7591562 H 40.530602 L 41.87319,6.5281931 Z M 43.739795,3.6487813 C 43.397491,2.8750066 42.778042,2.4481904 41.994326,2.4481904 h -0.156004 c -0.79381,0 -1.419677,0.4268162 -1.762903,1.2015136 l -4.22508,9.635052 c -0.08718,0.193674 -0.175284,0.424061 -0.175284,0.670058 0,0.832522 0.6378,1.48514 1.452715,1.48514 0.636883,0 1.17282,-0.3644 1.436202,-0.976635 l 0.79014,-1.87432 h 5.038169 l 0.757098,1.788961 c 0.301004,0.69484 0.814914,1.061994 1.486672,1.061994 0.83511,0 1.488511,-0.668221 1.488511,-1.520022 0,-0.192751 -0.0505,-0.394688 -0.157848,-0.633339 L 43.740711,3.6487813 Z m 26.888581,8.8759627 h -5.808122 v -2.167131 h 4.853716 c 0.862637,0 1.564678,-0.6498637 1.564678,-1.4484192 0,-0.8086635 -0.702041,-1.4658673 -1.564678,-1.4658673 H 64.820254 V 5.362477 h 5.712683 c 0.862637,0 1.565594,-0.6489481 1.565594,-1.4475036 0,-0.8086634 -0.702957,-1.466783 -1.565594,-1.466783 h -7.411339 c -0.963585,0 -1.717934,0.7067723 -1.717934,1.6099732 v 9.7718174 c 0,0.9032 0.754349,1.609973 1.717934,1.609973 h 7.506778 c 0.862638,0 1.565594,-0.649864 1.565594,-1.448427 0,-0.808656 -0.702041,-1.466783 -1.565594,-1.466783 M 81.426022,6.9201276 v 0.035798 c 0,0.9564394 -0.694695,1.5273684 -1.859259,1.5273684 H 77.036669 V 5.3744099 h 2.477785 c 0.871816,0 1.912483,0.2680237 1.912483,1.5457181 m 3.217456,-0.1064704 v -0.035798 c 0,-1.2226244 -0.39002,-2.2616755 -1.128767,-3.0024068 C 82.650234,2.9071342 81.346185,2.4481904 79.7448,2.4481904 h -4.299422 c -0.892004,0 -1.59129,0.7012639 -1.59129,1.5971179 v 9.7984437 c 0,0.894938 0.699286,1.596202 1.59129,1.596202 0.892004,0 1.591291,-0.701264 1.591291,-1.597125 v -2.484716 h 1.836316 l 2.585157,3.285117 c 0.41847,0.536962 0.9177,0.797639 1.524302,0.797639 0.747003,0 1.520625,-0.557157 1.520625,-1.489725 0,-0.52136 -0.233093,-0.860064 -0.494637,-1.19325 l -1.70234,-2.074426 C 83.837734,9.9436524 84.644393,8.6127125 84.644393,6.8145734 M 56.576568,3.5349645 53.518793,10.930381 50.462856,3.5377187 C 50.172862,2.8144213 49.655282,2.4481904 48.926629,2.4481904 c -0.914946,0 -1.63259,0.6829073 -1.63259,1.5558121 0,0.2772018 0.09177,0.5259531 0.181707,0.7343141 l 4.120469,9.4964544 c 0.33955,0.777451 1.022319,1.205183 1.922578,1.205183 0.900266,0 1.583035,-0.427732 1.923499,-1.2061 l 4.120463,-9.4964601 c 0.08902,-0.2074383 0.180792,-0.4561896 0.180792,-0.7343072 0,-0.871989 -0.716722,-1.5548963 -1.631668,-1.5548963 -0.729575,0 -1.246232,0.3671536 -1.535311,1.0867741 z M 89.45497,5.4900648 h 3.300047 v 8.2912702 c 0,0.868319 0.715806,1.572337 1.59863,1.572337 0.882826,0 1.598631,-0.704018 1.598631,-1.572337 V 5.4900648 h 3.557917 l 3.714855,8.7447062 c 0.3322,0.777451 1.00029,1.205183 1.88311,1.205183 0.881,0 1.55,-0.427732 1.8822,-1.2061 l 4.03512,-9.4964601 c 0.0872,-0.2074383 0.17713,-0.4561896 0.17713,-0.7343072 0,-0.871989 -0.70205,-1.5548963 -1.59864,-1.5548963 -0.71397,0 -1.22054,0.3671536 -1.50227,1.0867741 l -2.99262,7.3926615 -3.0128,-7.438553 A 1.5068619,1.5071698 0 0 0 100.69679,2.5546603 H 89.45497 c -0.824092,0 -1.492174,0.6572108 -1.492174,1.4686215 0,0.8104949 0.668082,1.466783 1.492174,1.466783"
       fill="#3c3c3c"
       fill-rule="evenodd"
       id="path161"
       style="fill:#3c3c3c;stroke-width:0.661761" />
  </g>
</svg>