<?xml version="1.0" encoding="utf-8"?>
<!-- Generator: Adobe Illustrator 28.1.0, SVG Export Plug-In . SVG Version: 6.00 Build 0)  -->
<svg version="1.1"
	 id="svg198" xmlns:inkscape="http://www.inkscape.org/namespaces/inkscape" xmlns:svg="http://www.w3.org/2000/svg" xmlns:sodipodi="http://sodipodi.sourceforge.net/DTD/sodipodi-0.dtd" xmlns:dc="http://purl.org/dc/elements/1.1/" xmlns:rdf="http://www.w3.org/1999/02/22-rdf-syntax-ns#" xmlns:cc="http://creativecommons.org/ns#"
	 xmlns="http://www.w3.org/2000/svg" xmlns:xlink="http://www.w3.org/1999/xlink" x="0px" y="0px" viewBox="0 0 59 67.6"
	 style="enable-background:new 0 0 59 67.6;" xml:space="preserve">
<style type="text/css">
	.st0{fill:#BCBCBC;}
</style>
<g id="layer1" inkscape:groupmode="layer">
	<g id="g115" transform="matrix(0.13208044,0,0,0.13207954,-1.1471869,0)">
		<path id="path109" class="st0" d="M8.8,69.6h137.3v375H8.8V69.6z"/>
		<path id="path111" class="st0" d="M444.1,220.7c19.7,30.8,10.7,71.8-20.1,91.5c-0.4,0.2-0.7,0.5-1.1,0.7l-309.3,189
			c-32,19.6-73.8,9.9-94-21.7c-19.7-30.8-10.7-71.8,20.1-91.5c0.4-0.2,0.7-0.5,1.1-0.7L350.1,199C382.1,179.4,423.9,189,444.1,220.7
			z"/>
		<path id="path113" class="st0" d="M19.1,31.9C39.3,0.2,81.1-9.5,113.2,10.1l310,189.1c31.3,19.1,41.2,59.9,22.1,91.2
			c-0.2,0.4-0.5,0.7-0.7,1.1c-20.2,31.7-62.1,41.4-94.1,21.8l-310-189.1C9.2,105.1-0.7,64.3,18.4,33C18.6,32.6,18.8,32.3,19.1,31.9z
			"/>
	</g>
</g>
</svg>
